<svg xmlns="http://www.w3.org/2000/svg" xmlns:xlink="http://www.w3.org/1999/xlink" width="2000" zoomAndPan="magnify" viewBox="0 0 1500 1499.999933" height="2000" preserveAspectRatio="xMidYMid meet" version="1.0"><defs><clipPath id="e56ea78616"><path d="M 18.292969 18.292969 L 1481.707031 18.292969 L 1481.707031 1481.707031 L 18.292969 1481.707031 Z M 18.292969 18.292969 " clip-rule="nonzero"/></clipPath><clipPath id="e0338f315b"><path d="M 750 18.292969 C 345.890625 18.292969 18.292969 345.890625 18.292969 750 C 18.292969 1154.109375 345.890625 1481.707031 750 1481.707031 C 1154.109375 1481.707031 1481.707031 1154.109375 1481.707031 750 C 1481.707031 345.890625 1154.109375 18.292969 750 18.292969 Z M 750 18.292969 " clip-rule="nonzero"/></clipPath><clipPath id="65ff683c30"><path d="M 0.292969 0.292969 L 1463.707031 0.292969 L 1463.707031 1463.707031 L 0.292969 1463.707031 Z M 0.292969 0.292969 " clip-rule="nonzero"/></clipPath><clipPath id="54c1915bf1"><path d="M 732 0.292969 C 327.890625 0.292969 0.292969 327.890625 0.292969 732 C 0.292969 1136.109375 327.890625 1463.707031 732 1463.707031 C 1136.109375 1463.707031 1463.707031 1136.109375 1463.707031 732 C 1463.707031 327.890625 1136.109375 0.292969 732 0.292969 Z M 732 0.292969 " clip-rule="nonzero"/></clipPath><clipPath id="9132d308bd"><rect x="0" width="1464" y="0" height="1464"/></clipPath><clipPath id="e9bab4d556"><path d="M 793 221 L 1260.054688 221 L 1260.054688 1282 L 793 1282 Z M 793 221 " clip-rule="nonzero"/></clipPath></defs><rect x="-150" width="1800" fill="#ffffff" y="-149.999993" height="1799.99992" fill-opacity="1"/><rect x="-150" width="1800" fill="#ffffff" y="-149.999993" height="1799.99992" fill-opacity="1"/><g clip-path="url(#e56ea78616)"><g clip-path="url(#e0338f315b)"><g transform="matrix(1, 0, 0, 1, 18, 18)"><g clip-path="url(#9132d308bd)"><g clip-path="url(#65ff683c30)"><g clip-path="url(#54c1915bf1)"><path fill="#290aeb" d="M 0.292969 0.292969 L 1463.707031 0.292969 L 1463.707031 1463.707031 L 0.292969 1463.707031 Z M 0.292969 0.292969 " fill-opacity="1" fill-rule="nonzero"/></g></g></g></g></g></g><path fill="#ffffff" d="M 393.164062 1145.597656 L 487.070312 1051.6875 C 418.617188 991.707031 370.859375 908.667969 355.910156 814.71875 L 586.644531 814.71875 L 586.644531 1257.546875 C 626.886719 1270.523438 669.230469 1278.828125 713.050781 1281.835938 L 713.050781 221.210938 C 669.242188 224.21875 626.894531 232.515625 586.644531 245.5 C 209.304688 348.207031 90.777344 895.210938 393.164062 1145.597656 Z M 586.644531 688.3125 L 355.910156 688.3125 C 377.335938 553.667969 466.117188 441.484375 586.644531 387.375 Z M 586.644531 688.3125 " fill-opacity="1" fill-rule="nonzero"/><g clip-path="url(#e9bab4d556)"><path fill="#ffffff" d="M 1100.699219 751.507812 C 1141.414062 713.28125 1218.609375 640.757812 1260.070312 601.824219 C 1201.171875 394.753906 1009.941406 237.46875 793.671875 221.730469 L 793.671875 1281.296875 C 837.535156 1277.722656 879.890625 1268.816406 920.078125 1255.242188 L 920.078125 814.710938 L 983.359375 814.710938 C 999.503906 829.867188 1088.484375 913.433594 1106.5625 930.417969 C 1084.933594 973.464844 1055.734375 1012.0625 1020.71875 1044.457031 L 1111.679688 1140.9375 C 1181.484375 1076.113281 1233.148438 993.207031 1260.070312 901.195312 C 1244.132812 886.226562 1160.480469 807.632812 1146.542969 794.5625 Z M 920.070312 688.3125 L 920.070312 390.570312 C 1000.734375 428.664062 1066.570312 493.011719 1106.5625 572.59375 C 1087.957031 590.070312 999.988281 672.695312 983.367188 688.300781 L 920.070312 688.300781 Z M 920.070312 688.3125 " fill-opacity="1" fill-rule="nonzero"/></g></svg>